<svg width="72" height="72" viewBox="0 0 72 72" fill="none" xmlns="http://www.w3.org/2000/svg">
<g style="mix-blend-mode:difference" clip-path="url(#clip0_1195_3545)">
<path d="M72 0H0V72H72V0Z" fill="black"/>
<path d="M17.6508 57.809C17.7143 57.8408 17.7143 57.936 17.7143 57.9995V61.7138C17.7143 61.8725 17.5873 61.9678 17.4286 61.9678H16.6984C16.5397 61.9678 16.4127 61.8408 16.4127 61.7138V60.4439H13.873V61.7138C13.873 61.8725 13.746 61.9678 13.5873 61.9678H12.8571C12.6984 61.9678 12.5714 61.8408 12.5714 61.7138V57.9995C12.5714 57.936 12.5714 57.8408 12.6349 57.809L14.9206 56.0947C14.9841 56.063 15.0159 56.0312 15.0793 56.0312C15.1428 56.0312 15.1746 56.0312 15.2381 56.0947L17.6508 57.809ZM13.9365 58.5074V59.3011H16.4762V58.5074L15.2063 57.5868L13.9365 58.5074Z" fill="white"/>
<path d="M25.2381 56.0957C25.3968 56.0957 25.5238 56.2227 25.5238 56.3497V61.683C25.5238 61.8417 25.3968 61.937 25.2381 61.937H24.5079C24.4127 61.937 24.3492 61.9052 24.2857 61.8417L20.7937 58.0957V61.683C20.7937 61.8417 20.6667 61.937 20.5079 61.937H19.7778C19.619 61.937 19.4921 61.81 19.4921 61.683V56.3497C19.4921 56.1909 19.619 56.0957 19.7778 56.0957H20.5079C20.6032 56.0957 20.6984 56.1275 20.7302 56.2227L24.254 59.9687V56.3814C24.254 56.2227 24.381 56.1275 24.5397 56.1275H25.2381V56.0957Z" fill="white"/>
<path d="M32.127 56.0957C32.2857 56.0957 32.381 56.2227 32.381 56.3814V57.0163C32.381 57.1751 32.254 57.3021 32.127 57.3021H30.2857V61.7465C30.2857 61.9052 30.1588 62.0005 30 62.0005H29.2699C29.1111 62.0005 28.9842 61.8735 28.9842 61.7465V57.3021H27.1429C26.9842 57.3021 26.8889 57.1751 26.8889 57.0163V56.3814C26.8889 56.2227 27.0159 56.0957 27.1429 56.0957H32.127Z" fill="white"/>
<path d="M40.4445 56.0957C40.6033 56.0957 40.7302 56.2227 40.7302 56.3497V60.2544C40.7302 60.3179 40.7302 60.3814 40.6667 60.4449L38.8255 61.9052C38.762 61.937 38.7302 61.9687 38.6667 61.9687C38.6033 61.9687 38.5715 61.9687 38.508 61.9052L37.2064 60.8894L35.9048 61.9052C35.8413 61.937 35.8096 61.9687 35.7461 61.9687C35.6826 61.9687 35.6509 61.9687 35.5874 61.9052L33.7461 60.4449C33.6826 60.4132 33.6826 60.3179 33.6826 60.2544V56.3497C33.6826 56.1909 33.8096 56.0957 33.9683 56.0957H34.6985C34.8572 56.0957 34.9842 56.2227 34.9842 56.3497V59.6195L35.8096 60.4132L36.635 59.6195V56.3497C36.635 56.1909 36.762 56.0957 36.9207 56.0957H37.6509C37.8096 56.0957 37.9366 56.2227 37.9366 56.3497V59.6195L38.762 60.4132L39.5874 59.6195V56.3497C39.5874 56.1909 39.7144 56.0957 39.8731 56.0957H40.4445Z" fill="white"/>
<path d="M45.9364 58.4439C46.0951 58.4439 46.1904 58.5709 46.1904 58.7296V59.3646C46.1904 59.5233 46.0634 59.6503 45.9364 59.6503H43.6507V59.936C43.6507 60.4122 43.9999 60.8249 44.9523 60.8249H46.6666C46.8253 60.8249 46.9205 60.9519 46.9205 61.1106V61.7455C46.9205 61.9042 46.7936 62.0312 46.6666 62.0312H45.0158C42.7618 62.0312 42.3809 60.8566 42.3809 59.936V56.4122C42.3809 56.2534 42.5078 56.1582 42.6666 56.1582H46.6983C46.8571 56.1582 46.9523 56.2852 46.9523 56.4439V57.0788C46.9523 57.2376 46.8253 57.3646 46.6983 57.3646H43.6824V58.5392H45.9364V58.4439Z" fill="white"/>
<path d="M53.3015 61.7777C53.365 61.9047 53.238 62 53.111 62H52.3173C52.1904 62 52.0316 62 51.9681 61.873L51.2697 60.3492H49.7777V61.7143C49.7777 61.873 49.6507 61.9682 49.4919 61.9682H48.7618C48.6031 61.9682 48.4761 61.8412 48.4761 61.7143V56.3809C48.4761 56.2222 48.6031 56.127 48.7618 56.127H51.3967C53.0158 56.127 53.3967 56.8889 53.3967 58.2222C53.3967 59.1111 53.2062 59.8095 52.5396 60.127L53.3015 61.7777ZM51.3015 59.1428C52.0316 59.1428 52.0316 58.8571 52.0316 58.1904C52.0316 57.5555 51.9999 57.2381 51.3015 57.2381H49.7142V59.1111H51.3015V59.1428Z" fill="white"/>
<path d="M57.7778 56.0957C59.3969 56.0957 59.7778 56.8576 59.7778 58.1909C59.7778 59.4608 59.3651 60.3497 57.7778 60.3497H56.1588V61.7147C56.1588 61.8735 56.0318 61.9687 55.873 61.9687H55.1429C54.9842 61.9687 54.8572 61.8417 54.8572 61.7147V56.3814C54.8572 56.2227 54.9842 56.1275 55.1429 56.1275H57.7778V56.0957ZM57.7461 59.1433C58.4762 59.1433 58.4762 58.8576 58.4762 58.1909C58.4762 57.556 58.4445 57.2386 57.7461 57.2386H56.1588V59.1116H57.7461V59.1433Z" fill="white"/>
<path d="M43.873 47.2073L41.4286 40.2866H30.0952L27.6508 47.2073H21.0159L32.8889 16.1914H38.9206L50.6984 47.2073H43.873ZM37.3333 28.7946C36.6984 26.9851 36.0952 25.112 35.7778 23.9692C35.4603 25.112 34.8571 26.9851 34.2222 28.7946L32.2222 34.4136H39.3016L37.3333 28.7946Z" fill="white"/>
<path d="M19.746 32.5717C19.5873 33.0161 19.1428 33.2383 18.6984 33.0796L10.0635 30.1907C9.61903 30.032 9.39681 29.5875 9.55554 29.1431L10.2857 27.0161C10.4444 26.5717 10.8889 26.3494 11.3333 26.5082L19.9682 29.3971C20.4127 29.5558 20.6349 30.0002 20.4762 30.4447L19.746 32.5717Z" fill="white"/>
<path d="M19.2698 39.3651C19.4285 39.8095 19.1746 40.2857 18.7301 40.4127L12.5714 42.6032C12.1269 42.7619 11.6507 42.5079 11.5238 42.0635L10.7936 39.9047C10.6349 39.4603 10.8888 38.9841 11.3333 38.8571L17.492 36.6666C17.9365 36.5079 18.4126 36.7619 18.5396 37.2063L19.2698 39.3651Z" fill="white"/>
<path d="M17.5872 19.5884C17.238 19.8741 17.1428 20.382 17.4285 20.763L21.3333 26.0011C21.619 26.3503 22.1269 26.4455 22.5079 26.1598L24.2856 24.763C24.6349 24.4773 24.7301 23.9693 24.4444 23.5884L20.5396 18.3503C20.2539 18.0011 19.746 17.9059 19.365 18.1916L17.5872 19.5884Z" fill="white"/>
<path d="M51.9366 32.5717C52.0953 33.0161 52.5397 33.2383 52.9842 33.0796L61.6191 30.1907C62.0636 30.032 62.2858 29.5875 62.127 29.1431L61.3969 27.0161C61.2382 26.5717 60.7937 26.3494 60.3493 26.5082L51.7461 29.3653C51.3016 29.524 51.0794 29.9685 51.2382 30.4129L51.9366 32.5717Z" fill="white"/>
<path d="M52.4127 39.3651C52.254 39.8095 52.508 40.2857 52.9524 40.4127L59.1112 42.6032C59.5556 42.7619 60.0318 42.5079 60.1588 42.0635L60.8889 39.9047C61.0477 39.4603 60.7937 38.9841 60.3492 38.8571L54.1905 36.6666C53.7461 36.5079 53.2699 36.7619 53.1429 37.2063L52.4127 39.3651Z" fill="white"/>
<path d="M54.0951 19.5884C54.4443 19.8741 54.5395 20.382 54.2538 20.763L50.3491 26.0011C50.0634 26.3503 49.5554 26.4455 49.1745 26.1598L47.3967 24.763C47.0475 24.4773 46.9522 23.9693 47.238 23.5884L51.1427 18.3503C51.4284 18.0011 51.9364 17.9059 52.3173 18.1916L54.0951 19.5884Z" fill="white"/>
</g>
<defs>
<clipPath id="clip0_1195_3545">
<rect width="72" height="72" fill="white"/>
</clipPath>
</defs>
</svg>
