<svg width="23" height="26" viewBox="0 0 23 26" fill="none" xmlns="http://www.w3.org/2000/svg">
<path d="M22.3244 24.6518C22.3244 24.8335 22.3244 25.0517 22.3244 25.2335C22.3244 25.2335 22.3244 25.2699 22.2881 25.3062H14.4601C14.4239 25.2699 14.3876 25.2335 14.3876 25.2335C14.3876 25.0517 14.3876 24.8336 14.3876 24.6154C14.5688 24.5427 14.7138 24.6154 14.8588 24.579C15.04 24.579 15.1849 24.579 15.3661 24.579C15.5111 24.579 15.6561 24.6154 15.8373 24.5427C15.8373 22.2157 15.8373 19.8523 15.8373 17.5253C15.6561 17.3435 15.6561 17.3435 15.1849 17.3435C15.04 17.5616 15.1849 17.8162 15.1124 18.0707C14.9312 18.107 14.7863 18.0707 14.6413 18.0707H13.7353C13.6266 18.3252 13.7353 18.5434 13.6628 18.7979C13.4454 18.7979 13.2279 18.7979 13.0105 18.7979C12.938 18.9433 12.9742 19.0524 12.9742 19.1615C12.938 19.2705 12.9742 19.3796 12.9742 19.4523C12.9017 19.5614 12.793 19.5251 12.6843 19.5251C12.0682 19.5251 11.4521 19.5251 10.7998 19.5251C10.7998 19.7796 10.7998 19.9614 10.7998 20.1795C10.3649 20.2522 8.73405 20.2886 7.90051 20.2159V19.7069C7.82802 19.6341 7.79178 19.5614 7.75554 19.5251C7.32065 19.5251 6.922 19.5251 6.52335 19.5251C6.41463 19.6705 6.48711 19.8159 6.48711 19.9977C6.45087 20.1432 6.48711 20.325 6.48711 20.4704C6.48711 20.6158 6.48711 20.7976 6.48711 20.9794C6.23343 20.9794 6.01598 20.9794 5.79854 20.9794C5.68981 21.1249 5.7623 21.2703 5.7623 21.4521C5.7623 21.5976 5.7623 21.7794 5.7623 21.9248C5.72606 22.0702 5.79854 22.252 5.72606 22.3975C5.50861 22.3975 5.29116 22.3975 5.10996 22.3975C5.07372 22.4338 5.03748 22.4702 5.03748 22.4702V23.8155C4.82003 23.9246 4.56635 23.8155 4.3489 23.8882C4.31266 24.1427 4.31266 24.3245 4.31266 24.5427C4.45763 24.6154 4.63883 24.579 4.78379 24.579H5.72606C5.72606 24.8336 5.72606 25.0517 5.68982 25.3062H0.0724817C0 25.0517 0 24.8336 0 24.6154C0 24.6154 0.0362409 24.6154 0.0724817 24.579H1.37715C1.48588 24.3609 1.37715 24.1064 1.44963 23.8882C1.52212 23.8882 1.55836 23.8882 1.63084 23.8882L1.95701 23.8518C1.99325 23.8518 2.06573 23.8518 2.10197 23.8518C2.21069 23.6337 2.10197 23.3792 2.17445 23.1247C2.3919 23.1247 2.60934 23.1247 2.79055 23.1247C2.82679 23.0883 2.86303 23.0883 2.86303 23.0883V21.743C3.08047 21.6339 3.33416 21.743 3.5516 21.6703L3.58785 21.6339V20.2886C3.80529 20.1795 4.05898 20.2886 4.31266 20.2159C4.31266 19.9977 4.31266 19.7796 4.31266 19.5614C4.53011 19.4887 4.78379 19.5614 5.03748 19.4887C5.03748 19.0887 5.03748 18.6888 5.03748 18.2525C4.965 18.1434 4.85627 18.0707 4.67507 18.0707C4.56635 18.0707 4.45763 18.0707 4.38514 18.0707C4.3489 18.0343 4.31266 18.0343 4.31266 18.0343V16.9435C4.31266 16.7981 4.24018 16.7254 4.13146 16.6163C3.98649 16.6163 3.80529 16.6163 3.62409 16.6163C3.58784 15.9255 3.5516 13.1985 3.58785 10.1807C3.69657 10.0716 3.84153 10.1443 3.95025 10.1079C4.05898 10.1079 4.1677 10.1079 4.31266 10.1079C4.31266 9.38076 4.31266 8.68992 4.31266 7.99909C4.53011 7.89001 4.78379 7.99909 5.03748 7.92638C5.03748 7.4537 5.03748 7.01739 5.03748 6.58107C5.07372 6.54471 5.07372 6.50835 5.10996 6.50835C5.29116 6.50835 5.50861 6.50835 5.68982 6.50835C5.79854 6.36292 5.72606 6.21748 5.7623 6.03568V5.09033C5.97974 5.05397 6.19719 5.09033 6.45087 5.05397C6.52335 4.83582 6.41463 4.5813 6.52335 4.32678C6.7408 4.32678 6.922 4.32678 7.13945 4.32678C7.24817 4.2177 7.17569 4.10863 7.21193 3.96319C7.21193 3.89047 7.21193 3.78139 7.21193 3.67231C7.28441 3.56323 7.42938 3.63595 7.5381 3.63595C7.64682 3.59959 7.75554 3.59959 7.86427 3.59959C7.93675 3.49051 7.90051 3.34508 7.90051 3.236C7.93675 3.16328 7.90051 3.0542 7.90051 2.94512C8.15419 2.83604 8.37164 2.94512 8.62532 2.8724C8.62532 2.65425 8.62532 2.43609 8.62532 2.21793C8.87901 2.10885 9.1327 2.21793 9.35014 2.14521C9.35014 1.92706 9.35014 1.7089 9.35014 1.49074C9.38638 1.49074 9.42262 1.45438 9.42262 1.45438H10.7635C10.8723 1.23622 10.7273 0.981707 10.836 0.763551C10.981 0.690831 11.1259 0.72719 11.3071 0.72719H12.2132C12.2856 0.509033 12.1769 0.254518 12.2857 0C14.6413 0 17.0332 0 19.3889 0C19.4976 0.109079 19.4251 0.254518 19.4613 0.363595C19.4613 0.472674 19.4613 0.545392 19.4613 0.654472C19.3889 0.763551 19.2801 0.72719 19.1714 0.72719C19.0264 0.72719 18.9177 0.72719 18.7365 0.72719C18.7365 0.945348 18.7365 1.1635 18.7365 1.38166C18.5191 1.5271 18.2654 1.38166 18.0479 1.45438C18.0117 1.49074 18.0117 1.49074 18.0117 1.5271V5.7448C18.1204 5.81752 18.2292 5.78116 18.3741 5.78116C18.4828 5.81752 18.5916 5.7448 18.7365 5.81752C18.7365 7.70822 18.7365 9.63527 18.7365 11.526C18.8452 11.5987 18.9902 11.5623 19.0989 11.5623C19.1714 11.5623 19.2801 11.5623 19.3889 11.5623C19.4976 11.635 19.4613 11.7441 19.4613 11.8532V18.0707C19.6788 18.0707 19.8962 18.0707 20.0774 18.0707C20.1137 18.107 20.1499 18.107 20.1862 18.1798V23.7791C20.1862 23.8155 20.1862 23.8155 20.2224 23.8518C20.4036 23.8518 20.621 23.8518 20.8385 23.8518C20.9472 24.1064 20.8385 24.3245 20.911 24.579C21.3821 24.579 21.8532 24.579 22.2881 24.579C22.2881 24.6154 22.3244 24.6518 22.3244 24.6518ZM7.93675 13.0531C8.15419 12.944 8.40788 13.0894 8.62532 12.9803V11.635C8.66157 11.635 8.66156 11.5987 8.66156 11.5987C8.87901 11.526 9.1327 11.635 9.35014 11.526V10.1807C9.35014 10.1807 9.38638 10.1443 9.42262 10.1079C9.60383 10.1079 9.82127 10.1079 10.075 10.1079V9.1626C10.075 8.9808 10.0387 8.83536 10.1474 8.65356C10.3286 8.65356 10.5461 8.65356 10.7635 8.65356C10.836 8.50813 10.7998 8.32633 10.7998 8.18089C10.7998 8.03545 10.7998 7.85366 10.7998 7.70822C10.7998 7.52642 10.7635 7.38098 10.8723 7.19918C11.0535 7.19918 11.2709 7.19918 11.5246 7.19918C11.5246 6.72651 11.5246 6.2902 11.5246 5.78116C11.6696 5.78116 11.7783 5.78116 11.887 5.78116C11.9957 5.78116 12.1044 5.81752 12.2494 5.7448C12.2494 5.52665 12.2494 5.30849 12.2494 5.09033C12.5031 5.01761 12.7205 5.12669 12.9742 5.01761C12.9742 4.83582 12.9742 4.69038 12.9742 4.54494C12.9742 4.3995 12.938 4.25406 12.9742 4.10863C12.9742 3.96319 12.938 3.78139 13.0105 3.63595C13.2279 3.59959 13.4454 3.63595 13.699 3.59959V2.36337L13.5178 2.18157C12.8655 2.18157 12.2132 2.18157 11.5608 2.18157C11.4521 2.39973 11.5971 2.65425 11.4884 2.90876C11.3071 2.90876 11.1622 2.90876 10.981 2.90876C10.836 2.90876 10.7273 2.8724 10.5823 2.90876C10.4011 2.90876 10.2562 2.8724 10.1112 2.90876C10.0387 3.16328 10.1474 3.38143 10.0387 3.59959C9.82127 3.63595 9.60383 3.59959 9.35014 3.63595C9.35014 3.85411 9.35014 4.07227 9.35014 4.32678C9.1327 4.3995 8.87901 4.29042 8.62532 4.36314C8.62532 4.61766 8.62532 4.79946 8.62532 5.01761C8.37164 5.12669 8.15419 4.98125 7.90051 5.12669C7.90051 5.34485 7.90051 5.56301 7.90051 5.7448C7.64682 5.85388 7.42938 5.70844 7.21193 5.81752V7.16283C7.17569 7.19918 7.17569 7.19919 7.13945 7.23555C6.95824 7.23555 6.7408 7.23555 6.52335 7.23555C6.48711 7.2719 6.48711 7.2719 6.48711 7.30826V9.3444C6.45087 9.3444 6.45087 9.38076 6.41463 9.41712C6.19719 9.41712 6.01598 9.41712 5.79854 9.41712C5.7623 9.45347 5.7623 9.48983 5.7623 9.52619V16.5799L5.79854 16.6163H6.41463C6.41463 16.6163 6.45087 16.6163 6.48711 16.5799C6.48711 16.4345 6.48711 16.2891 6.48711 16.1436C6.48711 15.9618 6.45087 15.8164 6.48711 15.6346C6.48711 15.4892 6.41463 15.3437 6.52335 15.1983C6.7408 15.1983 6.922 15.1983 7.13945 15.1983C7.13945 15.1983 7.17569 15.1619 7.21193 15.1256C7.21193 14.6892 7.21193 14.2166 7.21193 13.7803C7.42938 13.7075 7.68306 13.7803 7.93675 13.7075C7.93675 13.4894 7.93675 13.2712 7.93675 13.0531ZM14.3876 14.4347C14.3876 11.8532 14.3876 9.27168 14.3876 6.69015C14.3151 6.58107 14.2427 6.472 14.0977 6.50835C13.9527 6.54471 13.8078 6.472 13.6628 6.58107C13.6628 7.01739 13.6628 7.4537 13.6628 7.92638C13.4454 7.99909 13.1917 7.89001 12.938 7.99909C12.938 8.21725 12.938 8.43541 12.938 8.68993C12.7205 8.68993 12.5031 8.68993 12.2494 8.68993V10.0716C12.2494 10.0716 12.2132 10.0716 12.1769 10.1079C11.9957 10.1079 11.7783 10.1079 11.5246 10.1079V11.0897C11.5246 11.2351 11.5608 11.4169 11.4521 11.5623C11.2709 11.5623 11.0535 11.5623 10.7998 11.5623V12.544C10.7998 12.6895 10.836 12.8713 10.7273 13.0167C10.5461 13.0167 10.3286 13.0167 10.075 13.0167C10.075 13.4167 10.075 13.8166 10.075 14.1802C10.075 14.2893 10.1112 14.3984 10.0025 14.4711C9.92999 14.4711 9.82127 14.4711 9.71255 14.4711C9.60383 14.4711 9.49511 14.4347 9.35014 14.5074C9.35014 14.9438 9.35014 15.4164 9.35014 15.8891C9.09646 15.9618 8.87901 15.8527 8.62532 15.9618C8.62532 16.6527 8.62532 17.3071 8.62532 17.998L8.69781 18.0707H10.0387C10.0387 18.0707 10.075 18.0343 10.1112 17.998C10.1112 17.8162 10.1112 17.598 10.1112 17.3435C10.7273 17.3435 11.3434 17.3435 11.9595 17.3435C12.0682 17.3435 12.1769 17.3798 12.2494 17.3071C12.2494 17.1981 12.2494 17.089 12.2494 16.9799C12.2494 16.8708 12.2132 16.7617 12.2857 16.6163C12.5031 16.6163 12.7205 16.6163 12.938 16.6163C13.0105 16.3981 12.9017 16.1436 13.0105 15.9255C13.2279 15.8891 13.4454 15.9255 13.699 15.8891C13.699 15.7073 13.699 15.5619 13.699 15.4164C13.699 15.2346 13.6628 15.0892 13.699 14.9074C13.699 14.762 13.6266 14.6165 13.7353 14.4711C13.844 14.4711 13.9527 14.4711 14.0252 14.4711C14.1339 14.4347 14.2789 14.5074 14.3876 14.4347Z" fill="#EDF1F7"/>
</svg>
