<svg width="129" height="55" viewBox="0 0 129 55" fill="none" xmlns="http://www.w3.org/2000/svg">
<path d="M38.9196 25.3062H33.5899L28.8153 11.7155C27.853 8.96765 27.0388 6.14553 27.0388 6.14553H26.9647C26.9647 6.14553 27.2238 9.59891 27.2238 13.0152V25.3062H23.3746V0.241366H29.4816L33.5159 11.567C34.4041 14.0549 35.2554 16.9513 35.2554 16.9513H35.3294C35.3294 16.9513 35.0704 13.0894 35.0704 10.1188V0.241366H38.9196V25.3062Z" fill="#EDF1F7"/>
<path d="M54.1364 4.14034H50.1021V25.3062H45.3646V4.14034H41.3303V0.241366H54.1364V4.14034Z" fill="#EDF1F7"/>
<path d="M76.3936 0.241366H80.687C79.2805 9.30185 77.8 17.2112 75.9124 25.3062H70.6197L68.177 12.0126L67.5848 7.59372H67.5478L66.9926 11.9754L64.6608 25.3062H59.4421C57.4435 16.9513 56.037 9.41325 54.6306 0.241366H59.5532C60.3304 6.29406 61.3297 12.3096 62.3291 19.3278H62.3661L62.8843 15.3545L65.5861 0.241366H70.4717L73.2476 15.5031L73.7287 19.3278H73.7658C74.8021 12.8666 75.6534 6.47973 76.3936 0.241366Z" fill="#EDF1F7"/>
<path d="M94.0046 25.3062H83.0491V0.241366H93.8936V4.10321H87.7496V10.5272H92.8203V14.2406H87.7496V21.4072H94.0046V25.3062Z" fill="#EDF1F7"/>
<path d="M112.243 25.3062H107.172L103.027 14.7233H101.88V25.3062H97.29V0.241366C99.5478 0.204231 102.065 0.129966 104.063 0.129966C109.319 0.129966 111.318 2.95208 111.318 7.11099C111.318 10.5644 109.911 12.7181 107.283 13.6093L112.243 25.3062ZM101.88 3.76901V11.0471H103.508C105.581 11.0471 106.543 9.74745 106.543 7.25953C106.543 4.9944 105.655 3.76901 103.323 3.76901H101.88Z" fill="#EDF1F7"/>
<path d="M119.34 25.3062H114.639V0.241366C116.749 0.241366 119.34 0.167099 121.265 0.167099C126.779 0.167099 129 3.39768 129 7.96506C129 12.8295 126.409 16.6171 120.191 16.6171H119.34V25.3062ZM119.34 3.91754V12.9038H120.524C123.115 12.9038 124.151 11.2699 124.151 8.37352C124.151 5.62567 123.3 3.91754 120.487 3.91754H119.34Z" fill="#EDF1F7"/>
<path d="M22.3244 24.6518C22.3244 24.8335 22.3244 25.0517 22.3244 25.2335C22.3244 25.2335 22.3244 25.2699 22.2881 25.3062H14.4601C14.4239 25.2699 14.3876 25.2335 14.3876 25.2335C14.3876 25.0517 14.3876 24.8336 14.3876 24.6154C14.5688 24.5427 14.7138 24.6154 14.8588 24.579C15.04 24.579 15.1849 24.579 15.3661 24.579C15.5111 24.579 15.6561 24.6154 15.8373 24.5427C15.8373 22.2157 15.8373 19.8523 15.8373 17.5253C15.6561 17.3435 15.6561 17.3435 15.1849 17.3435C15.04 17.5616 15.1849 17.8162 15.1124 18.0707C14.9312 18.107 14.7863 18.0707 14.6413 18.0707H13.7353C13.6266 18.3252 13.7353 18.5434 13.6628 18.7979C13.4454 18.7979 13.2279 18.7979 13.0105 18.7979C12.938 18.9433 12.9742 19.0524 12.9742 19.1615C12.938 19.2705 12.9742 19.3796 12.9742 19.4523C12.9017 19.5614 12.793 19.5251 12.6843 19.5251C12.0682 19.5251 11.4521 19.5251 10.7998 19.5251C10.7998 19.7796 10.7998 19.9614 10.7998 20.1795C10.3649 20.2522 8.73405 20.2886 7.90051 20.2159V19.7069C7.82802 19.6341 7.79178 19.5614 7.75554 19.5251C7.32065 19.5251 6.922 19.5251 6.52335 19.5251C6.41463 19.6705 6.48711 19.8159 6.48711 19.9977C6.45087 20.1432 6.48711 20.325 6.48711 20.4704C6.48711 20.6158 6.48711 20.7976 6.48711 20.9794C6.23343 20.9794 6.01598 20.9794 5.79854 20.9794C5.68981 21.1249 5.7623 21.2703 5.7623 21.4521C5.7623 21.5976 5.7623 21.7794 5.7623 21.9248C5.72606 22.0702 5.79854 22.252 5.72606 22.3975C5.50861 22.3975 5.29116 22.3975 5.10996 22.3975C5.07372 22.4338 5.03748 22.4702 5.03748 22.4702V23.8155C4.82003 23.9246 4.56635 23.8155 4.3489 23.8882C4.31266 24.1427 4.31266 24.3245 4.31266 24.5427C4.45763 24.6154 4.63883 24.579 4.78379 24.579H5.72606C5.72606 24.8336 5.72606 25.0517 5.68982 25.3062H0.0724817C0 25.0517 0 24.8336 0 24.6154C0 24.6154 0.0362409 24.6154 0.0724817 24.579H1.37715C1.48588 24.3609 1.37715 24.1064 1.44963 23.8882C1.52212 23.8882 1.55836 23.8882 1.63084 23.8882L1.95701 23.8518C1.99325 23.8518 2.06573 23.8518 2.10197 23.8518C2.21069 23.6337 2.10197 23.3792 2.17445 23.1247C2.3919 23.1247 2.60934 23.1247 2.79055 23.1247C2.82679 23.0883 2.86303 23.0883 2.86303 23.0883V21.743C3.08047 21.6339 3.33416 21.743 3.5516 21.6703L3.58785 21.6339V20.2886C3.80529 20.1795 4.05898 20.2886 4.31266 20.2159C4.31266 19.9977 4.31266 19.7796 4.31266 19.5614C4.53011 19.4887 4.78379 19.5614 5.03748 19.4887C5.03748 19.0887 5.03748 18.6888 5.03748 18.2525C4.965 18.1434 4.85628 18.0707 4.67507 18.0707C4.56635 18.0707 4.45763 18.0707 4.38514 18.0707C4.3489 18.0343 4.31266 18.0343 4.31266 18.0343V16.9435C4.31266 16.7981 4.24018 16.7254 4.13146 16.6163C3.98649 16.6163 3.80529 16.6163 3.62409 16.6163C3.58784 15.9255 3.5516 13.1985 3.58785 10.1807C3.69657 10.0716 3.84153 10.1443 3.95025 10.1079C4.05898 10.1079 4.1677 10.1079 4.31266 10.1079C4.31266 9.38076 4.31266 8.68992 4.31266 7.99909C4.53011 7.89001 4.78379 7.99909 5.03748 7.92638C5.03748 7.4537 5.03748 7.01739 5.03748 6.58107C5.07372 6.54471 5.07372 6.50835 5.10996 6.50835C5.29116 6.50835 5.50861 6.50835 5.68982 6.50835C5.79854 6.36292 5.72606 6.21748 5.7623 6.03568V5.09033C5.97974 5.05397 6.19719 5.09033 6.45087 5.05397C6.52335 4.83582 6.41463 4.5813 6.52335 4.32678C6.7408 4.32678 6.922 4.32678 7.13945 4.32678C7.24817 4.2177 7.17569 4.10863 7.21193 3.96319C7.21193 3.89047 7.21193 3.78139 7.21193 3.67231C7.28441 3.56323 7.42938 3.63595 7.5381 3.63595C7.64682 3.59959 7.75554 3.59959 7.86427 3.59959C7.93675 3.49051 7.90051 3.34508 7.90051 3.236C7.93675 3.16328 7.90051 3.0542 7.90051 2.94512C8.15419 2.83604 8.37164 2.94512 8.62532 2.8724C8.62532 2.65425 8.62532 2.43609 8.62532 2.21793C8.87901 2.10885 9.1327 2.21793 9.35014 2.14521C9.35014 1.92706 9.35014 1.7089 9.35014 1.49074C9.38638 1.49074 9.42262 1.45438 9.42262 1.45438H10.7635C10.8723 1.23622 10.7273 0.981707 10.836 0.763551C10.981 0.690831 11.1259 0.72719 11.3071 0.72719H12.2132C12.2857 0.509033 12.1769 0.254518 12.2857 0C14.6413 0 17.0332 0 19.3889 0C19.4976 0.109079 19.4251 0.254518 19.4613 0.363595C19.4613 0.472674 19.4613 0.545392 19.4613 0.654472C19.3889 0.763551 19.2801 0.72719 19.1714 0.72719C19.0264 0.72719 18.9177 0.72719 18.7365 0.72719C18.7365 0.945348 18.7365 1.1635 18.7365 1.38166C18.5191 1.5271 18.2654 1.38166 18.0479 1.45438C18.0117 1.49074 18.0117 1.49074 18.0117 1.5271V5.7448C18.1204 5.81752 18.2292 5.78116 18.3741 5.78116C18.4828 5.81752 18.5916 5.7448 18.7365 5.81752C18.7365 7.70822 18.7365 9.63527 18.7365 11.526C18.8452 11.5987 18.9902 11.5623 19.0989 11.5623C19.1714 11.5623 19.2801 11.5623 19.3889 11.5623C19.4976 11.635 19.4613 11.7441 19.4613 11.8532V18.0707C19.6788 18.0707 19.8962 18.0707 20.0774 18.0707C20.1137 18.107 20.1499 18.107 20.1862 18.1798V23.7791C20.1862 23.8155 20.1862 23.8155 20.2224 23.8518C20.4036 23.8518 20.621 23.8518 20.8385 23.8518C20.9472 24.1064 20.8385 24.3245 20.911 24.579C21.3821 24.579 21.8532 24.579 22.2881 24.579C22.2881 24.6154 22.3244 24.6518 22.3244 24.6518ZM7.93675 13.0531C8.15419 12.944 8.40788 13.0894 8.62532 12.9803V11.635C8.66156 11.635 8.66156 11.5987 8.66156 11.5987C8.87901 11.526 9.1327 11.635 9.35014 11.526V10.1807C9.35014 10.1807 9.38638 10.1443 9.42262 10.1079C9.60383 10.1079 9.82127 10.1079 10.075 10.1079V9.1626C10.075 8.9808 10.0387 8.83536 10.1474 8.65356C10.3286 8.65356 10.5461 8.65356 10.7635 8.65356C10.836 8.50813 10.7998 8.32633 10.7998 8.18089C10.7998 8.03545 10.7998 7.85366 10.7998 7.70822C10.7998 7.52642 10.7635 7.38098 10.8723 7.19918C11.0535 7.19918 11.2709 7.19918 11.5246 7.19918C11.5246 6.72651 11.5246 6.2902 11.5246 5.78116C11.6696 5.78116 11.7783 5.78116 11.887 5.78116C11.9957 5.78116 12.1044 5.81752 12.2494 5.7448C12.2494 5.52665 12.2494 5.30849 12.2494 5.09033C12.5031 5.01761 12.7205 5.12669 12.9742 5.01761C12.9742 4.83582 12.9742 4.69038 12.9742 4.54494C12.9742 4.3995 12.938 4.25406 12.9742 4.10863C12.9742 3.96319 12.938 3.78139 13.0105 3.63595C13.2279 3.59959 13.4454 3.63595 13.699 3.59959V2.36337L13.5178 2.18157C12.8655 2.18157 12.2132 2.18157 11.5608 2.18157C11.4521 2.39973 11.5971 2.65425 11.4884 2.90876C11.3071 2.90876 11.1622 2.90876 10.981 2.90876C10.836 2.90876 10.7273 2.8724 10.5823 2.90876C10.4011 2.90876 10.2562 2.8724 10.1112 2.90876C10.0387 3.16328 10.1474 3.38143 10.0387 3.59959C9.82127 3.63595 9.60383 3.59959 9.35014 3.63595C9.35014 3.85411 9.35014 4.07227 9.35014 4.32678C9.1327 4.3995 8.87901 4.29042 8.62532 4.36314C8.62532 4.61766 8.62532 4.79946 8.62532 5.01761C8.37164 5.12669 8.15419 4.98125 7.90051 5.12669C7.90051 5.34485 7.90051 5.56301 7.90051 5.7448C7.64682 5.85388 7.42938 5.70844 7.21193 5.81752V7.16283C7.17569 7.19918 7.17569 7.19918 7.13945 7.23555C6.95824 7.23555 6.7408 7.23555 6.52335 7.23555C6.48711 7.2719 6.48711 7.2719 6.48711 7.30826V9.3444C6.45087 9.3444 6.45087 9.38076 6.41463 9.41712C6.19719 9.41712 6.01598 9.41712 5.79854 9.41712C5.7623 9.45347 5.7623 9.48983 5.7623 9.52619V16.5799L5.79854 16.6163H6.41463C6.41463 16.6163 6.45087 16.6163 6.48711 16.5799C6.48711 16.4345 6.48711 16.2891 6.48711 16.1436C6.48711 15.9618 6.45087 15.8164 6.48711 15.6346C6.48711 15.4892 6.41463 15.3437 6.52335 15.1983C6.7408 15.1983 6.922 15.1983 7.13945 15.1983C7.13945 15.1983 7.17569 15.1619 7.21193 15.1256C7.21193 14.6892 7.21193 14.2166 7.21193 13.7803C7.42938 13.7075 7.68306 13.7803 7.93675 13.7075C7.93675 13.4894 7.93675 13.2712 7.93675 13.0531ZM14.3876 14.4347C14.3876 11.8532 14.3876 9.27168 14.3876 6.69015C14.3151 6.58107 14.2427 6.472 14.0977 6.50835C13.9527 6.54471 13.8078 6.472 13.6628 6.58107C13.6628 7.01739 13.6628 7.4537 13.6628 7.92638C13.4454 7.99909 13.1917 7.89001 12.938 7.99909C12.938 8.21725 12.938 8.43541 12.938 8.68993C12.7205 8.68993 12.5031 8.68993 12.2494 8.68993V10.0716C12.2494 10.0716 12.2132 10.0716 12.1769 10.1079C11.9957 10.1079 11.7783 10.1079 11.5246 10.1079V11.0897C11.5246 11.2351 11.5608 11.4169 11.4521 11.5623C11.2709 11.5623 11.0535 11.5623 10.7998 11.5623V12.544C10.7998 12.6895 10.836 12.8713 10.7273 13.0167C10.5461 13.0167 10.3286 13.0167 10.075 13.0167C10.075 13.4167 10.075 13.8166 10.075 14.1802C10.075 14.2893 10.1112 14.3984 10.0025 14.4711C9.92999 14.4711 9.82127 14.4711 9.71255 14.4711C9.60383 14.4711 9.4951 14.4347 9.35014 14.5074C9.35014 14.9438 9.35014 15.4164 9.35014 15.8891C9.09646 15.9618 8.87901 15.8527 8.62532 15.9618C8.62532 16.6527 8.62532 17.3071 8.62532 17.998L8.69781 18.0707H10.0387C10.0387 18.0707 10.075 18.0343 10.1112 17.998C10.1112 17.8162 10.1112 17.598 10.1112 17.3435C10.7273 17.3435 11.3434 17.3435 11.9595 17.3435C12.0682 17.3435 12.1769 17.3799 12.2494 17.3071C12.2494 17.1981 12.2494 17.089 12.2494 16.9799C12.2494 16.8708 12.2132 16.7617 12.2857 16.6163C12.5031 16.6163 12.7205 16.6163 12.938 16.6163C13.0105 16.3981 12.9017 16.1436 13.0105 15.9255C13.2279 15.8891 13.4454 15.9255 13.699 15.8891C13.699 15.7073 13.699 15.5619 13.699 15.4164C13.699 15.2346 13.6628 15.0892 13.699 14.9074C13.699 14.762 13.6266 14.6165 13.7353 14.4711C13.844 14.4711 13.9527 14.4711 14.0252 14.4711C14.1339 14.4347 14.2789 14.5074 14.3876 14.4347Z" fill="#EDF1F7"/>
<path d="M101.03 29.6169L101.065 29.6524C101.065 29.865 101.065 30.0776 101.065 30.2903L101.03 30.3257C100.995 30.3257 100.959 30.3257 100.924 30.3257C100.535 30.3257 100.146 30.3257 99.7213 30.3257C99.6152 30.5383 99.7566 30.7864 99.6505 30.999C99.4383 31.0345 99.2261 30.999 99.0139 31.0345C98.9432 31.1762 99.0139 31.318 98.9785 31.4952C98.9785 31.6369 98.9785 31.8141 98.9785 31.9559C98.9785 32.0976 98.9785 32.2748 98.9785 32.4166C98.731 32.4166 98.5188 32.4166 98.3419 32.4166C98.3066 32.452 98.3066 32.4875 98.2712 32.4875C98.2712 32.5229 98.2712 32.5229 98.2712 32.5584C98.2712 33.4443 98.2712 34.3303 98.2712 35.2163C98.059 35.2872 97.8468 35.2163 97.6346 35.2517C97.5992 35.2872 97.5992 35.3226 97.5638 35.3226C97.5638 35.3226 97.5638 35.358 97.5638 35.3935C97.5638 36.4921 97.5638 37.6262 97.5638 38.7248C97.3516 38.8311 97.1041 38.7248 96.8919 38.7956C96.8919 38.8311 96.8919 38.8311 96.8919 38.8665C96.8565 38.8665 96.8565 38.902 96.8565 38.902C96.8565 38.9374 96.8565 38.9374 96.8565 38.9728C96.8565 40.036 96.8565 41.1346 96.8565 42.1978C96.8565 42.2332 96.8565 42.2332 96.8565 42.2687C96.6443 42.3396 96.3967 42.2687 96.1845 42.3396C96.1845 43.4736 96.1845 44.6431 96.1845 45.7772C96.043 45.848 95.9369 45.8126 95.8308 45.8126C95.7247 45.848 95.6186 45.8126 95.5125 45.8126C95.4418 45.9189 95.4771 45.9898 95.4771 46.0961C95.4771 46.8403 95.4771 47.5845 95.4771 48.3288C95.4771 48.4351 95.4771 48.506 95.4771 48.6477C95.2296 48.6477 95.0173 48.6477 94.8405 48.6477C94.8051 48.6832 94.7698 48.6832 94.7698 48.6832C94.7698 48.7186 94.7698 48.7186 94.7698 48.754C94.7698 49.8527 94.7698 50.9867 94.7698 52.0853C94.7698 52.1208 94.7344 52.1208 94.7344 52.1562C94.5222 52.1562 94.31 52.1562 94.1332 52.1562C94.0271 52.2979 94.0624 52.4397 94.0624 52.5815C94.0624 52.7232 94.0624 52.865 94.0624 52.9713C94.0624 53.1485 94.0624 53.2902 94.0624 53.4674C94.0624 53.6092 94.0624 53.7155 94.0624 53.8573C94.0624 53.999 94.0978 54.1408 94.0271 54.2825C93.3551 54.2825 92.6831 54.2825 91.9757 54.2825C91.9404 54.1054 91.9757 53.9282 91.9404 53.751C91.905 53.6801 91.8343 53.6446 91.7635 53.5738C91.6221 53.5738 91.4452 53.5738 91.233 53.5738C91.233 52.9004 91.233 52.2625 91.233 51.66C91.0562 51.3765 90.8086 51.5183 90.5964 51.4474C90.4903 51.3765 90.561 51.2702 90.561 51.1993C90.5257 50.4551 90.5257 49.7109 90.561 48.9667C90.561 48.7895 90.4549 48.754 90.3842 48.6477C90.2073 48.6477 90.0305 48.6477 89.889 48.6477C89.8537 48.6123 89.8537 48.6123 89.8537 48.5768C89.8537 48.5414 89.8537 48.506 89.8537 48.4705C89.8537 47.8681 89.8537 47.301 89.8537 46.6986C89.7829 46.6631 89.7122 46.5923 89.6415 46.5214C89.5 46.5214 89.3232 46.5214 89.1463 46.5214C89.1463 45.6354 89.1463 44.7494 89.1463 43.8989C88.9695 43.6154 88.6865 43.7571 88.4743 43.6862C88.4036 43.6154 88.439 43.509 88.439 43.4382C88.439 42.9066 88.439 42.4104 88.439 41.9143C88.439 41.7725 88.3682 41.7017 88.2621 41.5953C88.1207 41.5953 87.9438 41.5953 87.8023 41.5953C87.767 41.5599 87.7316 41.5599 87.7316 41.5245C87.7316 41.489 87.7316 41.4536 87.7316 41.4181C87.7316 40.8157 87.7316 40.2487 87.7316 39.6462C87.6609 39.6107 87.6255 39.5399 87.5548 39.469C87.3779 39.469 87.2011 39.469 87.0242 39.469C87.0242 38.583 87.0242 37.697 87.0242 36.8465C86.8474 36.563 86.5998 36.7047 86.3876 36.6693C86.2815 36.563 86.3169 36.4921 86.3169 36.3858C86.3169 35.8896 86.3169 35.358 86.3169 34.8619C86.3169 34.7201 86.2462 34.6493 86.1754 34.5784C85.9986 34.5784 85.8217 34.5784 85.6449 34.5784C85.5742 34.6847 85.6449 34.791 85.6095 34.8973C85.6095 35.0037 85.6095 35.11 85.6095 35.2163C85.3973 35.3226 85.1498 35.2163 84.9376 35.2872C84.9376 35.2872 84.9375 35.3226 84.9022 35.3226C84.9022 35.358 84.9022 35.358 84.9022 35.3935C84.9022 35.3935 84.9022 35.4289 84.9022 35.4644C84.9022 36.5275 84.9022 37.5907 84.9022 38.6893C84.9022 38.6893 84.9022 38.7248 84.9022 38.7602C84.69 38.8311 84.4424 38.7248 84.2302 38.7956C84.2302 39.7171 84.2302 40.6385 84.2302 41.5599C84.0887 41.6308 83.9826 41.5953 83.8765 41.5953C83.7704 41.5953 83.6643 41.5953 83.5582 41.5953C83.4875 41.6662 83.5228 41.7725 83.5228 41.8788C83.5228 42.8357 83.5228 43.7926 83.5228 44.7494C83.5228 44.8557 83.5228 44.9621 83.5228 45.1038C83.2753 45.1038 83.063 45.1038 82.8862 45.1038C82.8508 45.1392 82.8155 45.1393 82.8155 45.1747V45.2101C82.8155 46.3442 82.8155 47.4428 82.8155 48.5768C82.8155 48.5768 82.7801 48.6123 82.7448 48.6477C82.5679 48.6477 82.3557 48.6477 82.1789 48.6477C82.1435 48.6832 82.1081 48.6832 82.1081 48.7186V48.754C82.1081 49.8527 82.1081 50.9158 82.1081 51.979C82.1081 52.0144 82.1081 52.0144 82.1081 52.0499C82.1081 52.0499 82.1081 52.0853 82.1081 52.1208C82.1081 52.1208 82.0728 52.1208 82.0374 52.1562C81.8606 52.1562 81.6483 52.1562 81.4715 52.1562C81.4361 52.1916 81.4008 52.2271 81.4008 52.2271C81.4008 52.4397 81.4008 52.6169 81.4008 52.8295C81.613 52.9359 81.8605 52.8295 82.0728 52.9004C82.1435 53.1131 82.0728 53.3257 82.1081 53.5383C82.3203 53.6446 82.5679 53.5383 82.7801 53.6092C82.7801 53.8218 82.7801 54.0345 82.7801 54.2471C82.7801 54.2471 82.7801 54.2825 82.7448 54.2825C82.7448 54.2825 82.7094 54.2825 82.674 54.2825C80.8702 54.2825 79.0665 54.2825 77.192 54.2825C77.192 54.0345 77.192 53.8218 77.192 53.5738C77.6518 53.5738 78.0762 53.5738 78.536 53.5738C78.6421 53.4674 78.5714 53.3611 78.5714 53.2548C78.6067 53.113 78.5714 53.0067 78.5714 52.865C78.8189 52.865 79.0311 52.865 79.2433 52.865C79.3494 52.7232 79.2787 52.546 79.2787 52.4043C79.3141 52.2625 79.2787 52.0853 79.2787 51.9436C79.3141 51.8018 79.2433 51.6246 79.3141 51.4474C79.5263 51.4474 79.7385 51.4474 79.9507 51.4474L79.9861 51.412C79.9861 51.3765 79.9861 51.3057 79.9861 51.2702C79.9861 50.1716 79.9861 49.1084 79.9861 47.9744C80.1983 47.8681 80.4458 48.0098 80.658 47.9035C80.7288 47.7617 80.6934 47.62 80.6934 47.4428C80.6934 47.301 80.6934 47.1593 80.6934 46.9821C80.6934 46.8403 80.6934 46.6631 80.6934 46.5214C80.6934 46.3796 80.6934 46.2379 80.6934 46.0961C80.6934 45.9543 80.6934 45.7772 80.6934 45.6354C80.6934 45.4936 80.6934 45.3164 80.6934 45.1747C80.7995 45.0684 80.941 45.1392 81.0471 45.1392C81.1532 45.1038 81.2593 45.1392 81.4008 45.1392C81.4008 43.9343 81.4008 42.8003 81.4008 41.6662C81.5069 41.5599 81.6483 41.5953 81.7544 41.5953C81.8605 41.5953 81.9313 41.5953 82.0374 41.5953C82.1435 41.5245 82.1081 41.4181 82.1081 41.3473C82.1081 40.355 82.1081 39.3981 82.1081 38.4412C82.1081 38.3349 82.1081 38.2286 82.1081 38.0869C82.3203 38.0869 82.5325 38.0869 82.7448 38.0869C82.7801 38.0514 82.7801 38.0514 82.7801 38.016C82.8155 38.016 82.8155 37.9805 82.8155 37.9805C82.8155 36.8465 82.8155 35.7479 82.8155 34.6138C82.8155 34.6138 82.8155 34.5784 82.8509 34.5429C83.0277 34.5429 83.2399 34.5429 83.4521 34.5429C83.4875 34.5075 83.4875 34.5075 83.4875 34.5075C83.5228 34.4721 83.5228 34.4721 83.5228 34.4366C83.5228 33.1254 83.5228 31.8141 83.5228 30.5029C83.4521 30.432 83.4167 30.3966 83.3106 30.3257C82.957 30.3257 82.5325 30.3257 82.1435 30.3257C82.1081 30.2903 82.1081 30.2548 82.1081 30.2548C82.1081 30.0422 82.1081 29.865 82.1081 29.6878C82.1081 29.6523 82.1435 29.6523 82.1435 29.6169C82.1789 29.6169 82.1789 29.6169 82.2142 29.6169C84.4778 29.6169 86.7413 29.6169 89.0048 29.6169C89.0402 29.6169 89.0756 29.6524 89.1463 29.6524C89.1463 30.3257 89.1463 30.999 89.1463 31.7078C89.3585 31.7787 89.6061 31.6724 89.8537 31.7433C89.8537 32.452 89.8537 33.1254 89.8537 33.7987C89.9598 33.8696 90.1012 33.8342 90.2073 33.8342C90.2781 33.8342 90.3842 33.8342 90.4903 33.8342C90.4903 33.8696 90.5257 33.8696 90.5257 33.905V33.9405C90.561 34.5784 90.5257 35.2517 90.561 35.8896C90.561 35.8896 90.561 35.9251 90.5964 35.9605C90.7732 35.996 90.9854 35.9251 91.1976 35.9605C91.1976 35.996 91.233 35.996 91.233 35.996C91.233 36.0314 91.233 36.0668 91.233 36.0668C91.233 36.9528 91.233 37.8388 91.233 38.7248C91.233 38.7248 91.2684 38.7248 91.3037 38.7602C91.4806 38.7602 91.6928 38.7602 91.8696 38.7602C91.905 38.7956 91.9404 38.8311 91.9404 38.8311C91.9404 38.8665 91.9404 38.902 91.9404 38.9728C91.9404 39.5753 91.9404 40.2132 91.9404 40.8511C92.1526 40.9574 92.4001 40.8511 92.6124 40.922C92.6477 40.922 92.6477 40.9574 92.6477 40.9574C92.6477 40.9929 92.6477 40.9929 92.6477 41.0283C92.6477 41.9143 92.6477 42.7648 92.6477 43.6508C92.8599 43.7926 93.1075 43.6508 93.3551 43.7571C93.3551 44.1824 93.3551 44.6431 93.3551 45.0684C93.4612 45.1747 93.6026 45.1038 93.7088 45.1038C93.8149 45.1038 93.921 45.1392 94.0624 45.0684C94.0624 43.9343 94.0624 42.8003 94.0624 41.6308C94.1685 41.5599 94.31 41.5953 94.4161 41.5953C94.5222 41.5953 94.6283 41.5953 94.6991 41.5953C94.7344 41.5953 94.7344 41.5599 94.7344 41.5599C94.7698 41.5245 94.7698 41.5245 94.7698 41.489C94.7698 40.603 94.7698 39.7525 94.7698 38.8665C94.7698 38.8311 94.7698 38.8311 94.8051 38.7956C94.982 38.7602 95.1942 38.7956 95.4064 38.7602C95.4418 38.7602 95.4418 38.7602 95.4418 38.7248C95.4771 38.7248 95.4771 38.6893 95.4771 38.6893C95.4771 37.5553 95.4771 36.4567 95.4771 35.3226C95.4771 35.3226 95.4771 35.2872 95.5125 35.2517C95.7247 35.2517 95.9016 35.2517 96.1138 35.2517C96.1491 35.2163 96.1491 35.2163 96.1845 35.1809V35.1454C96.1845 33.5861 96.1845 32.0622 96.1845 30.5029C96.1138 30.432 96.043 30.3966 95.9723 30.3257C95.8308 30.3257 95.654 30.3257 95.4771 30.3257C95.4771 30.0776 95.4771 29.865 95.4771 29.6524L95.5125 29.6169C95.5479 29.6169 95.5479 29.6169 95.5832 29.6169C97.387 29.6169 99.2261 29.6169 101.03 29.6169Z" fill="#EDF1F7"/>
<path d="M14.5926 29.8522V45.4876C14.5926 52.1472 11.6668 54.6807 7.07957 54.6807C2.34782 54.6807 0 52.2557 0 46.0305V29.8522H4.58727V45.4876C4.58727 49.6136 5.23744 51.0614 7.40465 51.0614C9.39127 51.0614 10.2582 49.7222 10.2582 45.8133V29.8522H14.5926Z" fill="#EDF1F7"/>
<path d="M33.9017 54.2825H28.7004L24.0409 41.0358C23.1017 38.3576 22.3071 35.6069 22.3071 35.6069H22.2348C22.2348 35.6069 22.4877 38.9728 22.4877 42.3026V54.2825H18.7312V29.8522H24.691L28.6281 40.8911C29.495 43.316 30.3258 46.1391 30.3258 46.1391H30.398C30.398 46.1391 30.1452 42.375 30.1452 39.4795V29.8522H33.9017V54.2825Z" fill="#EDF1F7"/>
<path d="M49.9078 47.3696C49.9078 51.2061 47.7044 54.6807 42.7921 54.6807C40.3359 54.6807 38.2048 53.6673 36.5794 52.2557L37.6991 49.6498C39.2884 50.5185 40.8777 50.9528 41.9613 50.9528C43.9118 50.9528 45.0315 49.867 45.0315 47.8764C45.0315 43.2436 36.9767 44.1123 36.9767 36.3669C36.9767 32.2409 39.6496 29.4902 43.5145 29.4902C45.4289 29.4902 47.1626 30.0693 49.0409 31.4447L47.9934 34.0506C46.6208 33.3991 45.3205 33.1095 44.3452 33.1095C42.5031 33.1095 41.6362 34.2677 41.6362 35.8602C41.6362 40.5653 49.9078 39.8053 49.9078 47.3696Z" fill="#EDF1F7"/>
<path d="M63.5324 54.2825H52.8408V29.8522H63.4241V33.6163H57.4281V39.8777H62.3766V43.497H57.4281V50.4823H63.5324V54.2825Z" fill="#EDF1F7"/>
<path d="M77.4303 54.2825H66.7387V29.8522H77.3219V33.6163H71.326V39.8777H76.2744V43.497H71.326V50.4823H77.4303V54.2825Z" fill="#EDF1F7"/>
<rect x="103.065" y="48.1465" width="6.26211" height="6.53437" fill="#EDF1F7"/>
</svg>
